# Blender 4.1.1
# www.blender.org
mtllib TorturedTree.mtl
o TorturtedTree
v 1.633904 -0.205128 0.337895
v 0.693988 3.414472 0.577758
v 0.990149 -0.230079 2.031683
v 0.227758 3.429764 1.808509
v -0.736935 -0.205926 2.579129
v -1.026328 3.498980 2.206008
v -2.247003 -0.148992 1.567098
v -2.124271 3.571604 1.470309
v -2.402867 -0.101820 -0.241141
v -2.239182 3.593060 0.155931
v -1.086904 -0.101967 -1.484865
v -1.284462 3.545519 -0.747603
v 0.709875 -0.148769 -1.226995
v 0.021087 3.465394 -0.559871
v -0.551361 10.194255 1.646096
v -0.185433 10.114081 0.674193
v -1.533532 10.354296 1.956798
v -2.391221 10.474798 1.371703
v -2.479446 10.465211 0.331799
v -1.731318 10.331470 -0.380180
v -0.710647 10.174703 -0.228005
v -0.470614 14.917348 1.169530
v -0.153982 14.801136 0.320866
v -1.316784 15.126961 1.436514
v -2.055047 15.272684 0.920715
v -2.129861 15.245256 0.010384
v -1.484709 15.064548 -0.609049
v -0.605214 14.866550 -0.470948
v 0.690243 21.568882 0.214835
v 0.861577 21.472603 -0.257155
v 0.228887 21.733055 0.360167
v -0.175494 21.841764 0.068965
v -0.218283 21.813322 -0.439527
v 0.132935 21.668945 -0.782371
v 0.613521 21.517208 -0.701058
v 2.915999 26.949137 -0.796677
v 2.970521 26.912788 -0.951181
v 2.767099 27.010450 -0.750098
v 2.636146 27.050476 -0.846170
v 2.621549 27.039125 -1.012714
v 2.734510 26.984871 -1.124551
v 2.889846 26.928682 -1.097014
v -0.782572 26.541119 -1.655645
v 0.008060 26.287868 1.381716
v 1.301526 25.721445 2.412715
v 3.729216 24.425343 1.617389
v 5.314568 24.985254 -1.118252
v 3.748195 24.494751 -2.761582
v 0.769452 25.600813 -3.551389
v 3.464341 28.565826 -1.105731
v -3.145993 21.735409 -0.681576
v -1.699573 22.910330 1.946179
v 0.930905 21.484480 3.784362
v 3.614659 20.957802 1.647787
v 3.908369 20.184259 -1.247307
v 1.260378 20.664101 -3.325310
v -1.449550 21.495647 -2.993490
v 2.140752 25.728458 -0.672789
v 5.176974 14.938004 0.163446
v -0.065504 20.254065 3.203266
v 3.045106 15.049094 -4.233553
v -2.776801 21.300037 1.392322
v -2.202498 15.345675 -5.270984
v -2.596979 20.088192 -1.299519
v 1.828607 19.165043 1.960988
v 3.315967 16.202139 5.482550
v 3.114367 18.652678 0.110511
v -2.265276 16.981792 6.352318
v 1.717022 18.783434 -2.519059
v -6.270712 16.973743 3.487297
v -0.961806 19.217209 -2.665634
v -5.867971 17.843916 -2.511235
v 1.544377 23.164845 -0.451446
v 5.261097 9.371136 1.581458
v -2.579336 13.372909 4.123957
v 3.706692 8.914147 -3.891260
v -5.099455 13.562300 1.920390
v -1.505302 10.019725 -6.762501
v -4.728625 13.205923 -1.700252
v 0.621060 12.251028 4.307766
v 1.842603 10.113090 6.797499
v 2.686792 11.591682 0.764833
v -2.909297 10.758693 7.619740
v 1.620700 12.098903 -2.221573
v -7.539058 11.129032 2.584623
v -1.920342 12.604538 -3.492529
v -7.072155 10.496270 -3.829898
v -0.330473 18.715204 0.056271
v 8.308085 2.276136 -3.373102
v -0.221876 5.645607 6.441038
v 2.590083 2.321979 -9.150351
v -4.708723 6.600496 4.265571
v -6.219121 2.935221 -7.549469
v -6.809858 5.774439 0.483448
v 4.050235 5.798893 3.472160
v 8.272439 2.230816 5.282770
v 4.175817 5.408173 -1.775348
v 1.025105 2.688115 9.917471
v 0.169127 5.767788 -4.596390
v -6.935524 2.923898 7.463002
v -4.547233 6.119850 -4.258928
v -10.130879 2.834347 -0.076318
v -1.193984 14.621222 0.515479
vn 0.9636 0.2547 -0.0812
vn 0.9776 0.1968 -0.0745
vn 0.6954 0.1875 0.6937
vn 0.6771 0.1417 0.7221
vn -0.1070 0.0918 0.9900
vn -0.1419 0.0577 0.9882
vn -0.8544 0.0417 0.5180
vn -0.8595 0.0075 0.5110
vn -0.9248 0.0814 -0.3718
vn -0.9369 0.0266 -0.3486
vn -0.2622 0.1781 -0.9484
vn -0.3027 0.1042 -0.9474
vn 0.5631 0.2519 -0.7871
vn 0.5539 0.1812 -0.8127
vn 0.6761 0.0770 0.7327
vn 0.9953 0.0631 -0.0738
vn -0.1510 0.0668 0.9863
vn -0.8604 0.0427 0.5079
vn -0.9407 0.0108 -0.3391
vn -0.3218 -0.0022 -0.9468
vn 0.5551 0.0249 -0.8314
vn 0.6796 0.0251 0.7331
vn 0.9933 -0.0826 -0.0805
vn -0.1450 0.1494 0.9781
vn -0.8477 0.2032 0.4901
vn -0.9239 0.1435 -0.3547
vn -0.3203 0.0098 -0.9473
vn 0.5392 -0.0925 -0.8371
vn 0.6618 -0.0670 0.7467
vn 0.9630 -0.2616 -0.0644
vn -0.1242 0.2223 0.9670
vn -0.7910 0.3906 0.4708
vn -0.8722 0.3254 -0.3652
vn -0.3072 0.0690 -0.9491
vn 0.5165 -0.1978 -0.8331
vn 0.7367 0.4534 0.5017
vn 0.9501 0.2924 -0.1087
vn 0.1549 0.7194 0.6771
vn -0.3524 0.8880 0.2953
vn -0.4149 0.8383 -0.3537
vn 0.0162 0.6045 -0.7964
vn 0.6280 0.3595 -0.6902
vn -0.3949 0.8901 -0.2274
vn -0.2684 0.8666 0.4207
vn 0.2029 0.6968 0.6880
vn 0.6172 0.4595 0.6387
vn 0.8836 0.4569 -0.1028
vn 0.4964 0.3565 -0.7915
vn 0.0198 0.6254 -0.7801
vn 0.3762 0.9216 -0.0956
vn -0.5798 0.7683 -0.2713
vn -0.3941 0.8536 0.3406
vn 0.2839 0.6547 0.7005
vn 0.8294 0.4298 0.3569
vn 0.8593 0.3157 -0.4024
vn 0.3330 0.3914 -0.8579
vn -0.3031 0.6428 -0.7035
vn 0.3099 0.9395 -0.1460
vn 0.8464 0.5229 -0.1009
vn 0.1359 0.7108 0.6901
vn 0.5398 0.5106 -0.6693
vn -0.4870 0.8452 0.2202
vn 0.0032 0.5598 -0.8286
vn -0.4708 0.7276 -0.4990
vn 0.6820 0.5296 0.5043
vn 0.5951 0.6442 0.4805
vn 0.8892 0.4557 -0.0402
vn -0.0520 0.7242 0.6877
vn 0.5133 0.4599 -0.7246
vn -0.5452 0.7637 0.3458
vn -0.0600 0.5579 -0.8277
vn -0.4943 0.7352 -0.4639
vn 0.3821 0.9114 -0.1529
vn 0.6894 0.7236 0.0348
vn -0.1865 0.7198 0.6686
vn 0.5885 0.6937 -0.4154
vn -0.6440 0.7279 0.2352
vn 0.1299 0.7512 -0.6471
vn -0.5686 0.7087 -0.4176
vn 0.4761 0.6991 0.5334
vn 0.4305 0.7861 0.4434
vn 0.7932 0.6078 0.0388
vn -0.0651 0.7970 0.6005
vn 0.6355 0.5833 -0.5058
vn -0.6393 0.7432 0.1973
vn 0.0132 0.6648 -0.7469
vn -0.4780 0.7607 -0.4391
vn 0.1763 0.9820 -0.0677
vn 0.5343 0.8156 -0.2220
vn 0.0923 0.6936 0.7144
vn 0.2257 0.8128 -0.5371
vn -0.5294 0.6448 0.5513
vn -0.3268 0.7867 -0.5238
vn -0.7537 0.6572 -0.0032
vn 0.6156 0.7158 0.3295
vn 0.5357 0.8051 0.2546
vn 0.6247 0.7244 -0.2914
vn 0.1431 0.7669 0.6256
vn 0.2170 0.6947 -0.6858
vn -0.4399 0.7357 0.5150
vn -0.4160 0.7038 -0.5759
vn -0.6883 0.7244 -0.0384
vn 0.0001 0.9999 -0.0109
vt 1.000000 0.500000
vt 1.000000 1.000000
vt 0.857143 1.000000
vt 0.857143 0.500000
vt 0.714286 1.000000
vt 0.714286 0.500000
vt 0.571429 1.000000
vt 0.571429 0.500000
vt 0.428571 1.000000
vt 0.428571 0.500000
vt 0.285714 1.000000
vt 0.285714 0.500000
vt 0.142857 1.000000
vt 0.142857 0.500000
vt 0.000000 1.000000
vt 0.000000 0.500000
vt 0.437640 0.399638
vt 0.250000 0.490000
vt 0.062360 0.399638
vt 0.016017 0.196595
vt 0.145868 0.033767
vt 0.354132 0.033767
vt 0.483983 0.196595
vt 0.405337 0.969637
vt 0.495336 0.476621
vt 0.860661 0.750729
vt 0.241572 0.032246
vt 0.061907 0.246284
vt 0.061907 0.736091
vt 0.954280 0.410778
vt 0.692151 0.026512
vt 0.647248 0.973062
vt 0.488335 0.492775
vt 0.942104 0.693660
vt 0.098073 0.111516
vt 0.041526 0.592407
vt 0.240288 0.973259
vt 0.942104 0.214213
vt 0.569794 0.005209
vt 0.027771 0.632091
vt 0.108071 0.162923
vt 0.311207 0.379291
vt 0.278825 0.575593
vt 0.480664 0.018465
vt 0.897881 0.213512
vt 0.661320 0.424139
vt 0.534220 0.304470
vt 0.266807 0.961083
vt 0.372639 0.708851
vt 0.954124 0.666445
vt 0.696587 0.961083
vt 0.564324 0.737319
vt 0.713878 0.582105
vt 0.500554 0.528916
vt 0.172233 0.895985
vt 0.022907 0.470808
vt 0.220546 0.471918
vt 0.306360 0.695251
vt 0.237463 0.042728
vt 0.585481 0.004956
vt 0.550091 0.211124
vt 0.339565 0.284869
vt 0.612279 0.986494
vt 0.521777 0.760897
vt 0.923321 0.295638
vt 0.923321 0.698451
vt 0.724798 0.614893
vt 0.754138 0.403311
vt 0.488539 0.499025
vt 0.037426 0.703399
vt 0.037426 0.281557
vt 0.255322 0.390249
vt 0.221649 0.601662
vt 0.363971 0.003417
vt 0.801199 0.075623
vt 0.661894 0.261370
vt 0.407447 0.204735
vt 0.380992 0.973425
vt 0.426422 0.766496
vt 0.984414 0.483754
vt 0.830813 0.875617
vt 0.649951 0.696536
vt 0.771980 0.492987
vt 0.490048 0.488940
s 1
usemtl LeafBasicTrees
f 49/24/49 50/25/50 48/26/48
f 45/27/45 50/25/50 44/28/44
f 43/29/43 50/25/50 49/24/49
f 44/28/44 50/25/50 43/29/43
f 47/30/47 50/25/50 46/31/46
f 46/31/46 50/25/50 45/27/45
f 48/26/48 50/25/50 47/30/47
f 57/32/57 58/33/58 56/34/56
f 53/35/53 58/33/58 52/36/52
f 51/37/51 58/33/58 57/32/57
f 52/36/52 58/33/58 51/37/51
f 55/38/55 58/33/58 54/39/54
f 54/39/54 58/33/58 53/35/53
f 56/34/56 58/33/58 55/38/55
f 72/40/72 70/41/70 62/42/62 64/43/64
f 68/44/68 66/45/66 65/46/65 60/47/60
f 63/48/63 72/40/72 64/43/64 71/49/71
f 59/50/59 61/51/61 69/52/69 67/53/67
f 61/51/61 63/48/63 71/49/71 69/52/69
f 65/46/65 67/53/67 73/54/73
f 70/41/70 68/44/68 60/47/60 62/42/62
f 66/45/66 59/50/59 67/53/67 65/46/65
f 60/47/60 65/46/65 73/54/73
f 71/49/71 64/43/64 73/54/73
f 69/52/69 71/49/71 73/54/73
f 67/53/67 69/52/69 73/54/73
f 62/42/62 60/47/60 73/54/73
f 64/43/64 62/42/62 73/54/73
f 87/55/87 85/56/85 77/57/77 79/58/79
f 83/59/83 81/60/81 80/61/80 75/62/75
f 78/63/78 87/55/87 79/58/79 86/64/86
f 74/65/74 76/66/76 84/67/84 82/68/82
f 76/66/76 78/63/78 86/64/86 84/67/84
f 80/61/80 82/68/82 88/69/88
f 85/56/85 83/59/83 75/62/75 77/57/77
f 81/60/81 74/65/74 82/68/82 80/61/80
f 75/62/75 80/61/80 88/69/88
f 86/64/86 79/58/79 88/69/88
f 84/67/84 86/64/86 88/69/88
f 82/68/82 84/67/84 88/69/88
f 77/57/77 75/62/75 88/69/88
f 79/58/79 77/57/77 88/69/88
f 102/70/102 100/71/100 92/72/92 94/73/94
f 98/74/98 96/75/96 95/76/95 90/77/90
f 93/78/93 102/70/102 94/73/94 101/79/101
f 89/80/89 91/81/91 99/82/99 97/83/97
f 91/81/91 93/78/93 101/79/101 99/82/99
f 95/76/95 97/83/97 103/84/103
f 100/71/100 98/74/98 90/77/90 92/72/92
f 96/75/96 89/80/89 97/83/97 95/76/95
f 90/77/90 95/76/95 103/84/103
f 101/79/101 94/73/94 103/84/103
f 99/82/99 101/79/101 103/84/103
f 97/83/97 99/82/99 103/84/103
f 92/72/92 90/77/90 103/84/103
f 94/73/94 92/72/92 103/84/103
usemtl TrunksBasicTrees
f 1/1/1 2/2/2 4/3/4 3/4/3
f 3/4/3 4/3/4 6/5/6 5/6/5
f 5/6/5 6/5/6 8/7/8 7/8/7
f 7/8/7 8/7/8 10/9/10 9/10/9
f 9/10/9 10/9/10 12/11/12 11/12/11
f 14/13/14 12/11/12 20/11/20 21/13/21
f 11/12/11 12/11/12 14/13/14 13/14/13
f 13/14/13 14/13/14 2/15/2 1/16/1
f 16/15/16 21/13/21 28/13/28 23/15/23
f 10/9/10 8/7/8 18/7/18 19/9/19
f 2/15/2 14/13/14 21/13/21 16/15/16
f 6/5/6 4/3/4 15/3/15 17/5/17
f 12/11/12 10/9/10 19/9/19 20/11/20
f 4/3/4 2/2/2 16/2/16 15/3/15
f 8/7/8 6/5/6 17/5/17 18/7/18
f 28/13/28 27/11/27 34/11/34 35/13/35
f 20/11/20 19/9/19 26/9/26 27/11/27
f 18/7/18 17/5/17 24/5/24 25/7/25
f 15/3/15 16/2/16 23/2/23 22/3/22
f 21/13/21 20/11/20 27/11/27 28/13/28
f 19/9/19 18/7/18 25/7/25 26/9/26
f 17/5/17 15/3/15 22/3/22 24/5/24
f 34/11/34 33/9/33 40/9/40 41/11/41
f 26/9/26 25/7/25 32/7/32 33/9/33
f 24/5/24 22/3/22 29/3/29 31/5/31
f 23/15/23 28/13/28 35/13/35 30/15/30
f 27/11/27 26/9/26 33/9/33 34/11/34
f 25/7/25 24/5/24 31/5/31 32/7/32
f 22/3/22 23/2/23 30/2/30 29/3/29
f 36/17/36 37/18/37 42/19/42 41/20/41 40/21/40 39/22/39 38/23/38
f 32/7/32 31/5/31 38/5/38 39/7/39
f 29/3/29 30/2/30 37/2/37 36/3/36
f 35/13/35 34/11/34 41/11/41 42/13/42
f 33/9/33 32/7/32 39/7/39 40/9/40
f 31/5/31 29/3/29 36/3/36 38/5/38
f 30/15/30 35/13/35 42/13/42 37/15/37
