<?xml version="1.0" encoding="UTF-8" standalone="no"?>
<!-- Created with Inkscape (http://www.inkscape.org/) -->

<svg
   width="500"
   height="500"
   viewBox="0 0 132.29166 132.29167"
   version="1.1"
   id="svg1"
   inkscape:version="1.3 (0e150ed6c4, 2023-07-21)"
   sodipodi:docname="Icons.svg"
   xml:space="preserve"
   inkscape:export-filename="..\2D\UI\base_area_path.png"
   inkscape:export-xdpi="96"
   inkscape:export-ydpi="96"
   xmlns:inkscape="http://www.inkscape.org/namespaces/inkscape"
   xmlns:sodipodi="http://sodipodi.sourceforge.net/DTD/sodipodi-0.dtd"
   xmlns="http://www.w3.org/2000/svg"
   xmlns:svg="http://www.w3.org/2000/svg"><sodipodi:namedview
     id="namedview1"
     pagecolor="#ffffff"
     bordercolor="#000000"
     borderopacity="0.25"
     inkscape:showpageshadow="2"
     inkscape:pageopacity="0.0"
     inkscape:pagecheckerboard="0"
     inkscape:deskcolor="#d1d1d1"
     inkscape:document-units="mm"
     inkscape:zoom="1.0242632"
     inkscape:cx="76.1523"
     inkscape:cy="233.82661"
     inkscape:window-width="1920"
     inkscape:window-height="1009"
     inkscape:window-x="1912"
     inkscape:window-y="-8"
     inkscape:window-maximized="1"
     inkscape:current-layer="layer6"
     showgrid="false" /><defs
     id="defs1" /><g
     inkscape:label="HunterMachete"
     inkscape:groupmode="layer"
     id="layer1"
     style="display:none"><path
       style="fill:#979797;fill-opacity:1;stroke:none;stroke-width:0.646;stroke-linejoin:miter;stroke-miterlimit:5;stroke-dasharray:none;stroke-opacity:0.90113"
       d="m 40.470599,81.036502 c 0,0 67.862661,-62.65604 68.967291,-62.89575 3.93532,-0.85399 6.7356,-2.56347 6.7356,-2.56347 2.38276,3.80602 -1.18366,18.76265 -5.44779,22.13798 -64.021178,50.67685 -63.191206,51.76934 -63.191206,51.76934 z"
       id="path2"
       sodipodi:nodetypes="cscscc" /><path
       style="fill:#000000;fill-opacity:1;stroke:#000000;stroke-width:0.645999;stroke-linejoin:round;stroke-miterlimit:5;stroke-opacity:1"
       d="m 37.136094,79.446812 c 0,0 0.258318,3.48727 -1.549895,5.55379 -1.80821,2.06653 -15.899015,11.74145 -20.019469,22.925528 -0.904106,2.454 5.812105,4.52052 7.362,5.55379 1.549892,1.03326 4.003892,-2.19569 4.003892,-3.09979 0,-0.90411 0.387474,-3.48726 3.487264,-3.61642 3.099789,-0.12916 0.401799,-3.48726 3.874735,-4.13305 2.988785,-0.55576 0.774949,-4.003898 3.487264,-4.391368 2.712315,-0.38748 0.129156,-3.74558 3.099789,-4.26221 2.970631,-0.51663 4.778841,0.64579 5.55379,0.77495 0.774946,0.12915 3.61642,-1.67906 3.228946,-2.32485 -0.387475,-0.64579 -11.882526,-16.59679 -12.528316,-12.98037 z"
       id="path1"
       sodipodi:nodetypes="cssssssssssc" /></g><g
     inkscape:groupmode="layer"
     id="layer3"
     inkscape:label="BaseCamp"
     style="display:none"><path
       style="fill:#e95d23;fill-opacity:1;stroke:none;stroke-width:3.66433;stroke-linecap:round;stroke-linejoin:round;stroke-miterlimit:5;stroke-dasharray:none"
       d="m 43.248518,82.055556 1.41557,-17.020782 9.625915,-19.624403 9.261609,-14.743974 14.74674,3.878464 9.300376,30.902519 0.917329,16.626096 z"
       id="path12" /><path
       style="fill:none;stroke:#000000;stroke-width:3.66433;stroke-linecap:round;stroke-linejoin:round;stroke-miterlimit:5;stroke-dasharray:none"
       d="M 60.03769,111.17917 48.211339,101.25522 39.398687,88.42543"
       id="path5-6"
       sodipodi:nodetypes="ccc" /><path
       style="fill:#e95d23;fill-opacity:1;stroke:#000000;stroke-width:3.66433;stroke-linecap:round;stroke-linejoin:round;stroke-miterlimit:5;stroke-dasharray:none"
       d="m 43.248518,82.055556 c 0,0 -0.780342,-13.015075 3.570207,-24.504989 4.35055,-11.489916 13.732179,-16.50049 16.732887,-26.88417"
       id="path6"
       sodipodi:nodetypes="csc" /><path
       style="fill:#e95d23;fill-opacity:1;stroke:#000000;stroke-width:3.66433;stroke-linecap:round;stroke-linejoin:round;stroke-miterlimit:5;stroke-dasharray:none"
       d="m 73.829223,45.771794 c 0.469714,-0.613245 2.283501,-7.397603 0.714932,-17.651945 -1.568567,-10.254345 18.30458,41.996516 13.971905,53.953629"
       id="path8"
       sodipodi:nodetypes="csc" /><path
       style="fill:#e95d23;fill-opacity:1;stroke:#000000;stroke-width:3.66433;stroke-linecap:round;stroke-linejoin:round;stroke-miterlimit:5;stroke-dasharray:none"
       d="m 61.869856,58.909377 c 3.297921,-13.944074 5.028347,-33.928954 -1.664822,-46.426048 -0.292978,-0.547031 11.792022,7.972963 13.624189,33.288465 0.60689,8.385565 8.068658,24.653916 8.849747,36.301684"
       id="path9"
       sodipodi:nodetypes="cssc" /><path
       style="fill:#e95d23;fill-opacity:1;stroke:#000000;stroke-width:3.66433;stroke-linecap:round;stroke-linejoin:round;stroke-miterlimit:5;stroke-dasharray:none"
       d="m 66.146711,82.120015 c 0,0 0.183621,-4.366706 -0.762933,-11.465868 -0.946557,-7.099162 -7.937989,-19.269417 -5.725955,-25.264265 2.212035,-5.994849 -7.910389,12.147454 -7.099162,20.035412 0.811224,7.887958 -2.94421,16.648182 -2.94421,16.648182"
       id="path7"
       sodipodi:nodetypes="csssc" /><path
       style="fill:none;stroke:#000000;stroke-width:3.66433;stroke-linecap:round;stroke-linejoin:round;stroke-miterlimit:5;stroke-dasharray:none"
       d="m 60.03769,111.17917 v 6.30677 h -3.74678"
       id="path10" /><path
       style="fill:none;stroke:#000000;stroke-width:3.66433;stroke-linecap:round;stroke-linejoin:round;stroke-miterlimit:5;stroke-dasharray:none"
       d="m 72.306711,111.17917 v 6.30677 h 3.74678"
       id="path10-2" /><path
       style="fill:none;stroke:#000000;stroke-width:3.66433;stroke-linecap:round;stroke-linejoin:round;stroke-miterlimit:5;stroke-dasharray:none"
       d="m 66.146752,111.17905 -0.0049,6.42521"
       id="path11"
       sodipodi:nodetypes="cc" /><path
       id="path3-3"
       style="fill:#3e435a;fill-opacity:1;stroke:#000000;stroke-width:3.66433;stroke-miterlimit:5;stroke-dasharray:none;stroke-opacity:1"
       d="m 66.146712,105.85293 7.935507,-0.093 c 0,0 22.15076,-9.772394 25.129011,-23.732959 l -33.064519,0.09307 m -2e-6,23.732959 -7.935507,-0.0931 c 0,0 -22.150759,-9.772403 -25.129011,-23.732964 l 33.06452,0.09307" /><path
       style="fill:none;stroke:#000000;stroke-width:3.66433;stroke-linecap:round;stroke-linejoin:round;stroke-miterlimit:5;stroke-dasharray:none"
       d="M 27.766957,88.425554 H 104.51679 L 92.053811,101.80312 79.590839,111.17905 H 53.402819 L 40.072171,101.80312 Z"
       id="path3" /><path
       style="fill:none;stroke:#000000;stroke-width:3.66433;stroke-linecap:round;stroke-linejoin:round;stroke-miterlimit:5;stroke-dasharray:none"
       d="m 66.141869,88.425552 0.0049,22.753498"
       id="path4"
       sodipodi:nodetypes="cc" /><path
       style="fill:none;stroke:#000000;stroke-width:3.66433;stroke-linecap:round;stroke-linejoin:round;stroke-miterlimit:5;stroke-dasharray:none"
       d="m 72.306711,111.17917 11.770574,-9.92395 8.812652,-12.82979"
       id="path5"
       sodipodi:nodetypes="ccc" /></g><g
     inkscape:groupmode="layer"
     id="layer4"
     inkscape:label="PlantIcon"
     style="display:none"><path
       style="fill:#325232;fill-opacity:1;stroke:#000000;stroke-width:3;stroke-linecap:round;stroke-linejoin:round;stroke-miterlimit:5;stroke-dasharray:none;stroke-opacity:1"
       d="M 40.406055,83.446897 C 38.56464,81.512086 33.058131,64.84607 49.65067,52.137825 64.646449,40.65254 93.863993,29.546219 93.863993,29.546219"
       id="path14"
       sodipodi:nodetypes="csc" /><path
       style="fill:#3a5e3a;fill-opacity:1;stroke:#000000;stroke-width:3;stroke-linecap:round;stroke-linejoin:round;stroke-miterlimit:5;stroke-dasharray:none;stroke-opacity:1"
       d="m 38.268263,102.84288 c 0,0 -1.94117,-19.436959 9.56621,-31.833561 11.50738,-12.396603 45.779465,-43.520735 46.02952,-41.4631 C 96.239244,49.091552 83.635212,60.59788 80.530046,71.00932 76.389095,84.893691 63.725618,91.832197 40.528201,85.987179"
       id="path13"
       sodipodi:nodetypes="csssc" /></g><g
     inkscape:groupmode="layer"
     id="layer2"
     inkscape:label="Calque 2"
     style="display:none"><path
       style="fill:none;stroke:#000000;stroke-width:0.645999;stroke-linejoin:round;stroke-miterlimit:5;stroke-opacity:0.90113"
       d="m 104.34675,77.387495 c 0,0 0.25832,3.48727 -1.54989,5.55379 -1.80821,2.06653 -16.403045,15.49895 -22.344305,25.831575 -5.941268,10.33263 5.59557,6.14503 7.362,5.55379 1.96087,-0.65632 4.00389,-2.19569 4.00389,-3.09979 0,-0.90411 0.38747,-3.48726 3.48726,-3.61642 3.09979,-0.12916 0.90411,-3.48726 3.87474,-4.13305 2.970625,-0.64579 0.77495,-4.003895 3.487255,-4.391365 2.71232,-0.38748 0.12916,-3.74558 3.09979,-4.26221 2.97063,-0.51663 4.77884,0.64579 5.55379,0.77495 0.77494,0.12915 3.61642,-1.67906 3.22894,-2.32485 -0.38747,-0.64579 -9.55768,-19.50284 -10.20347,-15.88642 z"
       id="path1-3"
       sodipodi:nodetypes="cssssssssssc" /></g><g
     inkscape:groupmode="layer"
     id="layer5"
     inkscape:label="PlantIconRework"
     style="display:none"><rect
       style="fill:#8f8229;fill-opacity:1;stroke:#000000;stroke-width:10;stroke-linecap:round;stroke-linejoin:miter;stroke-miterlimit:5;stroke-dasharray:none;stroke-opacity:1"
       id="rect14"
       width="52.954727"
       height="52.954727"
       x="-26.477364"
       y="67.066971"
       transform="rotate(-45)" /></g><g
     inkscape:groupmode="layer"
     id="layer6"
     inkscape:label="CampRange"><circle
       style="fill:#fffffe;fill-opacity:1;stroke:none;stroke-width:11.4377;stroke-linecap:round;stroke-linejoin:miter;stroke-miterlimit:5;stroke-dasharray:none;stroke-opacity:1"
       id="path15"
       cx="66.145836"
       cy="66.145836"
       r="49.321312" /></g></svg>
