<?xml version="1.0" encoding="UTF-8" standalone="no"?>
<!-- Created with Inkscape (http://www.inkscape.org/) -->

<svg
   width="500"
   height="500"
   viewBox="0 0 132.29166 132.29167"
   version="1.1"
   id="svg1"
   inkscape:version="1.3 (0e150ed6c4, 2023-07-21)"
   sodipodi:docname="Icons.svg"
   xmlns:inkscape="http://www.inkscape.org/namespaces/inkscape"
   xmlns:sodipodi="http://sodipodi.sourceforge.net/DTD/sodipodi-0.dtd"
   xmlns="http://www.w3.org/2000/svg"
   xmlns:svg="http://www.w3.org/2000/svg">
  <sodipodi:namedview
     id="namedview1"
     pagecolor="#ffffff"
     bordercolor="#000000"
     borderopacity="0.25"
     inkscape:showpageshadow="2"
     inkscape:pageopacity="0.0"
     inkscape:pagecheckerboard="0"
     inkscape:deskcolor="#d1d1d1"
     inkscape:document-units="mm"
     inkscape:zoom="0.72426347"
     inkscape:cx="138.0713"
     inkscape:cy="108.38597"
     inkscape:window-width="1920"
     inkscape:window-height="1009"
     inkscape:window-x="1912"
     inkscape:window-y="-8"
     inkscape:window-maximized="1"
     inkscape:current-layer="layer1" />
  <defs
     id="defs1" />
  <g
     inkscape:label="HunterMachete"
     inkscape:groupmode="layer"
     id="layer1">
    <path
       style="fill:#979797;fill-opacity:1;stroke:none;stroke-width:0.646;stroke-linejoin:miter;stroke-miterlimit:5;stroke-dasharray:none;stroke-opacity:0.90113"
       d="m 40.470599,81.036502 c 0,0 67.862661,-62.65604 68.967291,-62.89575 3.93532,-0.85399 6.7356,-2.56347 6.7356,-2.56347 2.38276,3.80602 -1.18366,18.76265 -5.44779,22.13798 -64.021178,50.67685 -63.191206,51.76934 -63.191206,51.76934 z"
       id="path2"
       sodipodi:nodetypes="cscscc" />
    <path
       style="fill:#000000;fill-opacity:1;stroke:#000000;stroke-width:0.645999;stroke-linejoin:round;stroke-miterlimit:5;stroke-opacity:1"
       d="m 37.136094,79.446812 c 0,0 0.258318,3.48727 -1.549895,5.55379 -1.80821,2.06653 -15.899015,11.74145 -20.019469,22.925528 -0.904106,2.454 5.812105,4.52052 7.362,5.55379 1.549892,1.03326 4.003892,-2.19569 4.003892,-3.09979 0,-0.90411 0.387474,-3.48726 3.487264,-3.61642 3.099789,-0.12916 0.401799,-3.48726 3.874735,-4.13305 2.988785,-0.55576 0.774949,-4.003898 3.487264,-4.391368 2.712315,-0.38748 0.129156,-3.74558 3.099789,-4.26221 2.970631,-0.51663 4.778841,0.64579 5.55379,0.77495 0.774946,0.12915 3.61642,-1.67906 3.228946,-2.32485 -0.387475,-0.64579 -11.882526,-16.59679 -12.528316,-12.98037 z"
       id="path1"
       sodipodi:nodetypes="cssssssssssc" />
  </g>
  <g
     inkscape:groupmode="layer"
     id="layer2"
     inkscape:label="Calque 2"
     style="display:none">
    <path
       style="fill:none;stroke:#000000;stroke-width:0.645999;stroke-linejoin:round;stroke-miterlimit:5;stroke-opacity:0.90113"
       d="m 104.34675,77.387495 c 0,0 0.25832,3.48727 -1.54989,5.55379 -1.80821,2.06653 -16.403045,15.49895 -22.344305,25.831575 -5.941268,10.33263 5.59557,6.14503 7.362,5.55379 1.96087,-0.65632 4.00389,-2.19569 4.00389,-3.09979 0,-0.90411 0.38747,-3.48726 3.48726,-3.61642 3.09979,-0.12916 0.90411,-3.48726 3.87474,-4.13305 2.970625,-0.64579 0.77495,-4.003895 3.487255,-4.391365 2.71232,-0.38748 0.12916,-3.74558 3.09979,-4.26221 2.97063,-0.51663 4.77884,0.64579 5.55379,0.77495 0.77494,0.12915 3.61642,-1.67906 3.22894,-2.32485 -0.38747,-0.64579 -9.55768,-19.50284 -10.20347,-15.88642 z"
       id="path1-3"
       sodipodi:nodetypes="cssssssssssc" />
  </g>
</svg>
