<?xml version="1.0" encoding="UTF-8" standalone="no"?>
<!-- Created with Inkscape (http://www.inkscape.org/) -->

<svg
   width="500"
   height="500"
   viewBox="0 0 132.29166 132.29167"
   version="1.1"
   id="svg1"
   inkscape:version="1.3 (0e150ed6c4, 2023-07-21)"
   sodipodi:docname="Icons.svg"
   xml:space="preserve"
   inkscape:export-filename="..\2D\UI\stat_health_regen.png"
   inkscape:export-xdpi="96"
   inkscape:export-ydpi="96"
   xmlns:inkscape="http://www.inkscape.org/namespaces/inkscape"
   xmlns:sodipodi="http://sodipodi.sourceforge.net/DTD/sodipodi-0.dtd"
   xmlns="http://www.w3.org/2000/svg"
   xmlns:svg="http://www.w3.org/2000/svg"><sodipodi:namedview
     id="namedview1"
     pagecolor="#ffffff"
     bordercolor="#000000"
     borderopacity="0.25"
     inkscape:showpageshadow="2"
     inkscape:pageopacity="0.0"
     inkscape:pagecheckerboard="0"
     inkscape:deskcolor="#d1d1d1"
     inkscape:document-units="mm"
     inkscape:zoom="0.72426345"
     inkscape:cx="106.3149"
     inkscape:cy="115.28954"
     inkscape:window-width="1920"
     inkscape:window-height="1009"
     inkscape:window-x="1912"
     inkscape:window-y="-8"
     inkscape:window-maximized="1"
     inkscape:current-layer="layer17"
     showgrid="false" /><defs
     id="defs1" /><g
     inkscape:label="HunterMachete"
     inkscape:groupmode="layer"
     id="layer1"
     style="display:none"><path
       style="fill:#979797;fill-opacity:1;stroke:none;stroke-width:0.646;stroke-linejoin:miter;stroke-miterlimit:5;stroke-dasharray:none;stroke-opacity:0.90113"
       d="m 40.470599,81.036502 c 0,0 67.862661,-62.65604 68.967291,-62.89575 3.93532,-0.85399 6.7356,-2.56347 6.7356,-2.56347 2.38276,3.80602 -1.18366,18.76265 -5.44779,22.13798 -64.021178,50.67685 -63.191206,51.76934 -63.191206,51.76934 z"
       id="path2"
       sodipodi:nodetypes="cscscc" /><path
       style="fill:#000000;fill-opacity:1;stroke:#000000;stroke-width:0.645999;stroke-linejoin:round;stroke-miterlimit:5;stroke-opacity:1"
       d="m 37.136094,79.446812 c 0,0 0.258318,3.48727 -1.549895,5.55379 -1.80821,2.06653 -15.899015,11.74145 -20.019469,22.925528 -0.904106,2.454 5.812105,4.52052 7.362,5.55379 1.549892,1.03326 4.003892,-2.19569 4.003892,-3.09979 0,-0.90411 0.387474,-3.48726 3.487264,-3.61642 3.099789,-0.12916 0.401799,-3.48726 3.874735,-4.13305 2.988785,-0.55576 0.774949,-4.003898 3.487264,-4.391368 2.712315,-0.38748 0.129156,-3.74558 3.099789,-4.26221 2.970631,-0.51663 4.778841,0.64579 5.55379,0.77495 0.774946,0.12915 3.61642,-1.67906 3.228946,-2.32485 -0.387475,-0.64579 -11.882526,-16.59679 -12.528316,-12.98037 z"
       id="path1"
       sodipodi:nodetypes="cssssssssssc" /></g><g
     inkscape:groupmode="layer"
     id="layer3"
     inkscape:label="BaseCamp"
     style="display:none"><path
       style="fill:#e95d23;fill-opacity:1;stroke:none;stroke-width:3.66433;stroke-linecap:round;stroke-linejoin:round;stroke-miterlimit:5;stroke-dasharray:none"
       d="m 43.248518,82.055556 1.41557,-17.020782 9.625915,-19.624403 9.261609,-14.743974 14.74674,3.878464 9.300376,30.902519 0.917329,16.626096 z"
       id="path12" /><path
       style="fill:none;stroke:#000000;stroke-width:3.66433;stroke-linecap:round;stroke-linejoin:round;stroke-miterlimit:5;stroke-dasharray:none"
       d="M 60.03769,111.17917 48.211339,101.25522 39.398687,88.42543"
       id="path5-6"
       sodipodi:nodetypes="ccc" /><path
       style="fill:#e95d23;fill-opacity:1;stroke:#000000;stroke-width:3.66433;stroke-linecap:round;stroke-linejoin:round;stroke-miterlimit:5;stroke-dasharray:none"
       d="m 43.248518,82.055556 c 0,0 -0.780342,-13.015075 3.570207,-24.504989 4.35055,-11.489916 13.732179,-16.50049 16.732887,-26.88417"
       id="path6"
       sodipodi:nodetypes="csc" /><path
       style="fill:#e95d23;fill-opacity:1;stroke:#000000;stroke-width:3.66433;stroke-linecap:round;stroke-linejoin:round;stroke-miterlimit:5;stroke-dasharray:none"
       d="m 73.829223,45.771794 c 0.469714,-0.613245 2.283501,-7.397603 0.714932,-17.651945 -1.568567,-10.254345 18.30458,41.996516 13.971905,53.953629"
       id="path8"
       sodipodi:nodetypes="csc" /><path
       style="fill:#e95d23;fill-opacity:1;stroke:#000000;stroke-width:3.66433;stroke-linecap:round;stroke-linejoin:round;stroke-miterlimit:5;stroke-dasharray:none"
       d="m 61.869856,58.909377 c 3.297921,-13.944074 5.028347,-33.928954 -1.664822,-46.426048 -0.292978,-0.547031 11.792022,7.972963 13.624189,33.288465 0.60689,8.385565 8.068658,24.653916 8.849747,36.301684"
       id="path9"
       sodipodi:nodetypes="cssc" /><path
       style="fill:#e95d23;fill-opacity:1;stroke:#000000;stroke-width:3.66433;stroke-linecap:round;stroke-linejoin:round;stroke-miterlimit:5;stroke-dasharray:none"
       d="m 66.146711,82.120015 c 0,0 0.183621,-4.366706 -0.762933,-11.465868 -0.946557,-7.099162 -7.937989,-19.269417 -5.725955,-25.264265 2.212035,-5.994849 -7.910389,12.147454 -7.099162,20.035412 0.811224,7.887958 -2.94421,16.648182 -2.94421,16.648182"
       id="path7"
       sodipodi:nodetypes="csssc" /><path
       style="fill:none;stroke:#000000;stroke-width:3.66433;stroke-linecap:round;stroke-linejoin:round;stroke-miterlimit:5;stroke-dasharray:none"
       d="m 60.03769,111.17917 v 6.30677 h -3.74678"
       id="path10" /><path
       style="fill:none;stroke:#000000;stroke-width:3.66433;stroke-linecap:round;stroke-linejoin:round;stroke-miterlimit:5;stroke-dasharray:none"
       d="m 72.306711,111.17917 v 6.30677 h 3.74678"
       id="path10-2" /><path
       style="fill:none;stroke:#000000;stroke-width:3.66433;stroke-linecap:round;stroke-linejoin:round;stroke-miterlimit:5;stroke-dasharray:none"
       d="m 66.146752,111.17905 -0.0049,6.42521"
       id="path11"
       sodipodi:nodetypes="cc" /><path
       id="path3-3"
       style="fill:#3e435a;fill-opacity:1;stroke:#000000;stroke-width:3.66433;stroke-miterlimit:5;stroke-dasharray:none;stroke-opacity:1"
       d="m 66.146712,105.85293 7.935507,-0.093 c 0,0 22.15076,-9.772394 25.129011,-23.732959 l -33.064519,0.09307 m -2e-6,23.732959 -7.935507,-0.0931 c 0,0 -22.150759,-9.772403 -25.129011,-23.732964 l 33.06452,0.09307" /><path
       style="fill:none;stroke:#000000;stroke-width:3.66433;stroke-linecap:round;stroke-linejoin:round;stroke-miterlimit:5;stroke-dasharray:none"
       d="M 27.766957,88.425554 H 104.51679 L 92.053811,101.80312 79.590839,111.17905 H 53.402819 L 40.072171,101.80312 Z"
       id="path3" /><path
       style="fill:none;stroke:#000000;stroke-width:3.66433;stroke-linecap:round;stroke-linejoin:round;stroke-miterlimit:5;stroke-dasharray:none"
       d="m 66.141869,88.425552 0.0049,22.753498"
       id="path4"
       sodipodi:nodetypes="cc" /><path
       style="fill:none;stroke:#000000;stroke-width:3.66433;stroke-linecap:round;stroke-linejoin:round;stroke-miterlimit:5;stroke-dasharray:none"
       d="m 72.306711,111.17917 11.770574,-9.92395 8.812652,-12.82979"
       id="path5"
       sodipodi:nodetypes="ccc" /></g><g
     inkscape:groupmode="layer"
     id="layer4"
     inkscape:label="PlantIcon"
     style="display:none"><path
       style="fill:#325232;fill-opacity:1;stroke:#000000;stroke-width:3;stroke-linecap:round;stroke-linejoin:round;stroke-miterlimit:5;stroke-dasharray:none;stroke-opacity:1"
       d="M 40.406055,83.446897 C 38.56464,81.512086 33.058131,64.84607 49.65067,52.137825 64.646449,40.65254 93.863993,29.546219 93.863993,29.546219"
       id="path14"
       sodipodi:nodetypes="csc" /><path
       style="fill:#3a5e3a;fill-opacity:1;stroke:#000000;stroke-width:3;stroke-linecap:round;stroke-linejoin:round;stroke-miterlimit:5;stroke-dasharray:none;stroke-opacity:1"
       d="m 38.268263,102.84288 c 0,0 -1.94117,-19.436959 9.56621,-31.833561 11.50738,-12.396603 45.779465,-43.520735 46.02952,-41.4631 C 96.239244,49.091552 83.635212,60.59788 80.530046,71.00932 76.389095,84.893691 63.725618,91.832197 40.528201,85.987179"
       id="path13"
       sodipodi:nodetypes="csssc" /></g><g
     inkscape:groupmode="layer"
     id="layer2"
     inkscape:label="Calque 2"
     style="display:none"><path
       style="fill:none;stroke:#000000;stroke-width:0.645999;stroke-linejoin:round;stroke-miterlimit:5;stroke-opacity:0.90113"
       d="m 104.34675,77.387495 c 0,0 0.25832,3.48727 -1.54989,5.55379 -1.80821,2.06653 -16.403045,15.49895 -22.344305,25.831575 -5.941268,10.33263 5.59557,6.14503 7.362,5.55379 1.96087,-0.65632 4.00389,-2.19569 4.00389,-3.09979 0,-0.90411 0.38747,-3.48726 3.48726,-3.61642 3.09979,-0.12916 0.90411,-3.48726 3.87474,-4.13305 2.970625,-0.64579 0.77495,-4.003895 3.487255,-4.391365 2.71232,-0.38748 0.12916,-3.74558 3.09979,-4.26221 2.97063,-0.51663 4.77884,0.64579 5.55379,0.77495 0.77494,0.12915 3.61642,-1.67906 3.22894,-2.32485 -0.38747,-0.64579 -9.55768,-19.50284 -10.20347,-15.88642 z"
       id="path1-3"
       sodipodi:nodetypes="cssssssssssc" /></g><g
     inkscape:groupmode="layer"
     id="layer5"
     inkscape:label="PlantIconRework"
     style="display:none"><rect
       style="fill:#8f8229;fill-opacity:1;stroke:#000000;stroke-width:10;stroke-linecap:round;stroke-linejoin:miter;stroke-miterlimit:5;stroke-dasharray:none;stroke-opacity:1"
       id="rect14"
       width="52.954727"
       height="52.954727"
       x="-26.477364"
       y="67.066971"
       transform="rotate(-45)" /></g><g
     inkscape:groupmode="layer"
     id="layer6"
     inkscape:label="CampRange"
     style="display:none"><circle
       style="fill:#fffffe;fill-opacity:1;stroke:none;stroke-width:11.4377;stroke-linecap:round;stroke-linejoin:miter;stroke-miterlimit:5;stroke-dasharray:none;stroke-opacity:1"
       id="path15"
       cx="66.145836"
       cy="66.145836"
       r="49.321312" /></g><g
     inkscape:groupmode="layer"
     id="layer8"
     inkscape:label="StatArmorPhysical"
     style="display:none"><path
       style="display:inline;fill:#a26e45;fill-opacity:1;stroke:#000000;stroke-width:7.11986;stroke-linecap:round;stroke-miterlimit:5;stroke-dasharray:none;stroke-opacity:1"
       d="M 21.740825,6.3131918 65.086663,13.524049 112.02949,5.3493766 111.67385,96.083393 89.031367,118.18351 65.086663,127.35108 41.998769,117.94272 21.740825,95.915125 Z"
       id="path31"
       sodipodi:nodetypes="ccccccccc" /><path
       id="path16-0"
       style="fill:#979797;fill-opacity:1;stroke:#000000;stroke-width:4.15325;stroke-linecap:round;stroke-miterlimit:5;stroke-dasharray:none;stroke-opacity:1"
       d="m 65.897919,27.464644 -6.985624,7.467313 V 78.73889 H 52.93829 l -3.235504,3.235503 3.235504,3.236273 h 9.70728 v 13.690847 l -2.115141,2.239937 5.36749,4.107 5.368257,-4.107 -2.115905,-2.239937 V 85.210666 h 9.707277 L 82.093816,81.974393 78.857548,78.73889 H 72.883543 V 34.931957 Z"
       sodipodi:nodetypes="ccccccccccccccccccc" /><path
       style="fill:#979797;fill-opacity:1;stroke:#000000;stroke-width:4.06902;stroke-linecap:round;stroke-miterlimit:5;stroke-dasharray:none;stroke-opacity:1"
       d="M 58.912291,78.73889 H 72.883543"
       id="path18-4" /></g><g
     inkscape:groupmode="layer"
     id="layer9"
     inkscape:label="StatArmorMagic"
     style="display:none"><path
       style="display:inline;fill:#a26e45;fill-opacity:1;stroke:#000000;stroke-width:6.9474;stroke-linecap:round;stroke-miterlimit:5;stroke-dasharray:none;stroke-opacity:1"
       d="M 22.08686,7.7624373 64.382788,14.798636 110.18858,6.8219674 109.84155,95.358257 87.747511,116.92306 64.382788,125.86859 41.854122,116.68812 22.08686,95.194055 Z"
       id="path31-5"
       sodipodi:nodetypes="ccccccccc" /><path
       style="display:inline;fill:#3c2950;fill-opacity:1;stroke:#000000;stroke-width:4.49458;stroke-linecap:round;stroke-miterlimit:5;stroke-dasharray:none;stroke-opacity:1"
       d="m 50.0125,76.219414 0.242412,-15.837935 8.72703,-20.52465 23.110437,-5.979625 10.666364,8.888632 -7.757361,1.454505 -8.242169,5.818013 3.39383,11.151198 3.232232,14.841598"
       id="path25-7" /><path
       style="display:inline;fill:#3c2950;fill-opacity:1;stroke:#000000;stroke-width:4.49458;stroke-linecap:round;stroke-miterlimit:5;stroke-dasharray:none;stroke-opacity:1"
       d="m 100.51609,78.15875 -5.494781,-3.878672 -15.353092,2.585776 -6.141255,-3.232233 -16.161145,4.848357 -14.706633,-4.525129 -10.989579,4.040286 0.106358,3.787239 11.084832,-1.714159 13.713202,4.113971 16.684369,-3.885414 6.17093,3.085465 14.741689,-2.856907 5.599539,2.742628 z"
       id="path24-4" /></g><g
     inkscape:groupmode="layer"
     id="layer10"
     inkscape:label="StatMagic"
     style="display:none"><path
       style="display:inline;fill:#3c2950;fill-opacity:1;stroke:#000000;stroke-width:6.12554;stroke-linecap:round;stroke-miterlimit:5;stroke-dasharray:none;stroke-opacity:1"
       d="M 95.903322,90.217208 90.324509,64.60071 84.466783,45.353825 98.692713,35.311972 112.08187,32.801505 93.671791,17.459788 53.783332,27.780577 38.720551,63.206002 38.302137,90.542154 Z"
       id="path25" /><path
       style="fill:#3c2950;fill-opacity:1;stroke:#000000;stroke-width:6.12554;stroke-linecap:round;stroke-miterlimit:5;stroke-dasharray:none;stroke-opacity:1"
       d="M 125.47099,93.889438 115.98703,87.194869 89.487705,91.657923 78.887958,86.07911 50.993931,94.447322 25.610353,86.636995 6.6424105,93.610499 l 0.1835615,6.536741 19.132341,-2.958614 23.668873,7.100664 28.797127,-6.706182 10.650997,5.325492 25.44403,-4.93101 9.6648,4.73377 z"
       id="path24" /></g><g
     inkscape:groupmode="layer"
     id="layer11"
     inkscape:label="StatPhysical"
     style="display:none"><path
       id="path16"
       style="fill:#b0b0b0;fill-opacity:1;stroke:#000000;stroke-width:5.71824;stroke-linecap:round;stroke-miterlimit:5;stroke-dasharray:none;stroke-opacity:1"
       d="M 66.145733,9.4668608 55.76304,20.565485 v 65.10999 h -8.879128 l -4.80891,4.80891 4.80891,4.810051 h 14.427871 v 20.348614 l -3.143719,3.32924 7.977669,6.10418 7.978809,-6.10418 -3.144857,-3.32924 V 95.294436 h 14.427868 l 4.810049,-4.810051 -4.810049,-4.80891 h -8.879125 v -65.10999 z"
       sodipodi:nodetypes="ccccccccccccccccccc" /><path
       style="fill:#b0b0b0;fill-opacity:1;stroke:#000000;stroke-width:5.71824;stroke-linecap:round;stroke-miterlimit:5;stroke-dasharray:none;stroke-opacity:1"
       d="M 55.763036,85.675472 H 76.528428"
       id="path18" /></g><g
     inkscape:groupmode="layer"
     id="layer12"
     inkscape:label="StatMovementSpeed"
     style="display:none"><path
       style="fill:none;stroke:#404040;stroke-width:3.89043;stroke-linecap:round;stroke-miterlimit:5;stroke-dasharray:none;stroke-opacity:1"
       d="M 51.744848,90.192462 H 7.4378071"
       id="path30" /><path
       style="fill:none;stroke:#404040;stroke-width:3.89043;stroke-linecap:round;stroke-miterlimit:5;stroke-dasharray:none;stroke-opacity:1"
       d="M 71.171001,99.632456 H 26.863944"
       id="path30-4" /><path
       style="fill:none;stroke:#404040;stroke-width:3.89043;stroke-linecap:round;stroke-miterlimit:5;stroke-dasharray:none;stroke-opacity:1"
       d="M 73.072181,68.126201 H 28.765141"
       id="path30-7" /><path
       style="fill:none;stroke:#404040;stroke-width:3.89043;stroke-linecap:round;stroke-miterlimit:5;stroke-dasharray:none;stroke-opacity:1"
       d="M 81.778575,80.752463 H 37.471535"
       id="path30-7-8" /><path
       style="fill:none;stroke:#404040;stroke-width:3.89043;stroke-linecap:round;stroke-miterlimit:5;stroke-dasharray:none;stroke-opacity:1"
       d="M 67.725001,47.025869 H 23.417944"
       id="path30-6" /><path
       style="fill:none;stroke:#404040;stroke-width:3.89043;stroke-linecap:round;stroke-miterlimit:5;stroke-dasharray:none;stroke-opacity:1"
       d="M 86.789875,30.15312 H 42.482834"
       id="path30-26" /><path
       style="fill:none;stroke:#000000;stroke-width:6.48406;stroke-linecap:round;stroke-miterlimit:5;stroke-dasharray:none;stroke-opacity:1"
       d="M 93.035107,115.64037 102.98289,92.310717 84.187527,80.84717 95.768133,45.061978 l 9.736697,21.379973 17.84768,-2.512005"
       id="path26"
       sodipodi:nodetypes="cccccc" /><path
       style="fill:none;stroke:#000000;stroke-width:6.48406;stroke-linecap:round;stroke-miterlimit:5;stroke-dasharray:none;stroke-opacity:1"
       d="m 95.768133,45.061978 -28.043132,1.963891 5.34718,21.100332"
       id="path27"
       sodipodi:nodetypes="ccc" /><path
       style="fill:none;stroke:#000000;stroke-width:6.48406;stroke-linecap:round;stroke-miterlimit:5;stroke-dasharray:none;stroke-opacity:1"
       d="M 84.187527,80.847164 71.171001,99.632456 51.744881,90.192467"
       id="path28"
       sodipodi:nodetypes="ccc" /><path
       style="fill:none;stroke:#000000;stroke-width:6.48406;stroke-linecap:round;stroke-miterlimit:5;stroke-dasharray:none;stroke-opacity:1"
       d="M 95.768133,45.061974 87.990005,27.238973 104.71136,16.384911 116.46318,37.610617 Z"
       id="path29"
       sodipodi:nodetypes="ccccc" /></g><g
     inkscape:groupmode="layer"
     id="layer13"
     inkscape:label="StatLifeSteal"
     style="display:none"><path
       id="path16-7"
       style="display:inline;fill:#b0b0b0;fill-opacity:1;stroke:#000000;stroke-width:5.92018;stroke-linecap:round;stroke-miterlimit:5;stroke-dasharray:none;stroke-opacity:1"
       d="M 91.73764,6.6024894 80.988268,18.093077 V 85.50251 h -9.192706 l -4.978742,4.978743 4.978742,4.979924 h 14.93741 v 21.067253 l -3.254743,3.44681 8.259411,6.31976 8.26059,-6.31976 -3.255921,-3.44681 V 95.461177 h 14.937401 l 4.97993,-4.979924 -4.97993,-4.978743 h -9.1927 V 18.093077 Z"
       sodipodi:nodetypes="ccccccccccccccccccc" /><path
       style="display:inline;fill:none;stroke:#000000;stroke-width:5.92018;stroke-linecap:round;stroke-miterlimit:5;stroke-dasharray:none;stroke-opacity:1"
       d="M 80.988263,85.502507 H 102.48701"
       id="path18-8" /><path
       style="fill:#0bfd00;fill-opacity:1;stroke:#000000;stroke-width:5.92018;stroke-linecap:round;stroke-miterlimit:5;stroke-dasharray:none;stroke-opacity:1"
       d="M 30.525161,61.645708 V 79.49595 c 21.429599,-0.616438 13.270179,-10e-7 19.905232,0 V 61.645708 H 68.063188 V 43.437412 H 50.430393 V 26.207714 H 29.798612 V 43.532956 H 12.543661 v 18.112752 z"
       id="path32"
       sodipodi:nodetypes="ccccccccccccc" /></g><g
     inkscape:groupmode="layer"
     id="layer14"
     inkscape:label="StatSouls"
     style="display:none"><path
       style="fill:#1a1b26;fill-opacity:1;stroke:#000000;stroke-width:7.33183;stroke-linecap:round;stroke-miterlimit:5;stroke-dasharray:none;stroke-opacity:1"
       d="m 115.39211,94.672515 -9.75193,11.209035 -18.409624,14.08345 -7.184677,-6.11631 -27.567504,2.67275 -19.84318,-1.61531 -6.856636,-5.92692 -7.28119,-0.26733 L 17.040255,87.750915 7.6866633,56.982301 20.298062,41.95687 29.749146,24.450761 47.855617,30.96807 59.034791,15.771823 78.198335,11.74612 l 12.387528,14.1501 14.922597,-1.22559 13.4088,16.926649 -3.35336,9.217252 5.87883,25.044693 z"
       id="path33" /><path
       style="fill:#1a1b26;fill-opacity:1;stroke:#000000;stroke-width:7.33183;stroke-linecap:round;stroke-miterlimit:5;stroke-dasharray:none;stroke-opacity:1"
       d="M 90.585863,25.89622 98.769585,45.054792 92.359569,73.910328 74.248633,70.480939 70.615325,47.607469"
       id="path34" /><path
       style="fill:#1a1b26;fill-opacity:1;stroke:#000000;stroke-width:7.33183;stroke-linecap:round;stroke-miterlimit:5;stroke-dasharray:none;stroke-opacity:1"
       d="M 47.855617,30.96807 33.622597,46.150714 33.1672,69.28788 42.137027,96.55454 68.781118,100.7842 82.811147,88.983432"
       id="path35" /></g><g
     inkscape:groupmode="layer"
     id="layer15"
     inkscape:label="StatCooldownReduction"
     style="display:none"><path
       style="fill:none;stroke:#000000;stroke-width:5.82673;stroke-linecap:round;stroke-miterlimit:5;stroke-dasharray:none;stroke-opacity:1"
       d="M 27.972703,7.546748 H 97.357979 V 30.469931 L 65.237644,68.501907 94.241523,100.71692 v 24.80294 H 28.256136 V 101.43375 L 58.156873,67.665322 28.072906,33.160427 Z"
       id="path52"
       sodipodi:nodetypes="ccccccccccc" /><path
       style="fill:#000000;fill-opacity:1;stroke:#000000;stroke-width:5.82673;stroke-linecap:round;stroke-miterlimit:5;stroke-dasharray:none;stroke-opacity:1"
       d="m 47.866408,49.841707 7.668259,-5.905711 3.514033,0.889038 7.099975,-1.185387 9.348276,7.092611 -10.259307,17.769649 -3.225477,0.03082 -3.855297,-0.867421 z"
       id="path53"
       sodipodi:nodetypes="ccccccccc" /><path
       style="fill:#000000;fill-opacity:1;stroke:#000000;stroke-width:5.82673;stroke-linecap:round;stroke-miterlimit:5;stroke-dasharray:none;stroke-opacity:1"
       d="m 28.256136,115.36275 16.313718,-4.69288 8.001352,-8.89038 8.55192,-1.77808 1.685273,-6.223276 7.785472,9.779436 5.037887,6.51962 18.609765,4.92713 v 10.51554 H 28.256136 Z"
       id="path55"
       sodipodi:nodetypes="ccccccccccc" /><path
       style="fill:none;fill-opacity:1;stroke:#000000;stroke-width:5.82673;stroke-linecap:round;stroke-miterlimit:5;stroke-dasharray:none;stroke-opacity:1"
       d="m 62.012167,68.532733 -0.0464,28.357036"
       id="path59"
       sodipodi:nodetypes="cc" /></g><g
     inkscape:groupmode="layer"
     id="layer16"
     inkscape:label="StatMaxHealth"
     style="display:none"><path
       style="display:inline;fill:#20f703;fill-opacity:1;stroke:#000000;stroke-width:5.82918;stroke-linecap:round;stroke-miterlimit:5;stroke-dasharray:none;stroke-opacity:1"
       d="m 81.179121,74.1408 v 16.131068 c 19.365689,-0.557068 11.992115,-10e-7 17.988134,0 V 74.1408 H 115.10181 V 57.686164 H 99.167255 V 42.115875 H 80.522546 v 15.65663 H 64.929436 V 74.1408 Z"
       id="path32-7"
       sodipodi:nodetypes="ccccccccccccc" /><rect
       style="fill:none;fill-opacity:1;stroke:#000000;stroke-width:5.82918;stroke-linecap:round;stroke-miterlimit:5;stroke-dasharray:none;stroke-opacity:1"
       id="rect59"
       width="117.65668"
       height="74.268333"
       x="7.3174949"
       y="28.486654" /></g><g
     inkscape:groupmode="layer"
     id="layer17"
     inkscape:label="StatMaxStrength"
     style="display:none"><rect
       style="display:inline;fill:none;fill-opacity:1;stroke:#000000;stroke-width:5.85357;stroke-linecap:round;stroke-miterlimit:5;stroke-dasharray:none;stroke-opacity:1"
       id="rect59-7"
       width="118.14892"
       height="74.579056"
       x="7.5064096"
       y="28.328297" /><path
       style="display:inline;fill:#f60000;fill-opacity:1;stroke:#000000;stroke-width:4.68286;stroke-linecap:round;stroke-miterlimit:5;stroke-dasharray:none;stroke-opacity:1"
       d="M 66.886294,75.729989 H 56.58723 v -22.26828 h 10.299064"
       id="path65"
       sodipodi:nodetypes="cccc" /><path
       style="fill:#f60000;fill-opacity:1;stroke:#000000;stroke-width:4.68286;stroke-linecap:round;stroke-miterlimit:5;stroke-dasharray:none;stroke-opacity:1"
       d="m 66.886294,47.114711 v 38.297141 h 6.278075 v 5.593965 H 97.48615 v -5.378811 h 12.65481 V 46.469252 H 99.477038 V 40.229828 H 77.696607 v 6.884883 z"
       id="path60"
       sodipodi:nodetypes="ccccccccccccc" /><path
       style="fill:#f60000;fill-opacity:1;stroke:#000000;stroke-width:4.68286;stroke-linecap:round;stroke-miterlimit:5;stroke-dasharray:none;stroke-opacity:1"
       d="M 88.360188,40.229828 V 61.74508 h 21.780772"
       id="path61"
       sodipodi:nodetypes="ccc" /><path
       style="fill:#f60000;fill-opacity:1;stroke:#000000;stroke-width:4.68286;stroke-linecap:round;stroke-miterlimit:5;stroke-dasharray:none;stroke-opacity:1"
       d="M 88.360188,61.74508 H 66.886294"
       id="path62"
       sodipodi:nodetypes="cc" /><path
       style="fill:#f60000;fill-opacity:1;stroke:#000000;stroke-width:4.68286;stroke-linecap:round;stroke-miterlimit:5;stroke-dasharray:none;stroke-opacity:1"
       d="M 77.69661,47.114711 V 61.74508"
       id="path63"
       sodipodi:nodetypes="cc" /><path
       style="fill:#f60000;fill-opacity:1;stroke:#000000;stroke-width:4.68286;stroke-linecap:round;stroke-miterlimit:5;stroke-dasharray:none;stroke-opacity:1"
       d="M 99.477035,46.469252 V 61.74508"
       id="path64"
       sodipodi:nodetypes="cc" /></g><g
     inkscape:groupmode="layer"
     id="layer18"
     inkscape:label="StatHealthRegen"
     style="display:none"><path
       style="display:inline;fill:#f01616;fill-opacity:1;stroke:#000000;stroke-width:6.11602;stroke-linecap:round;stroke-miterlimit:5;stroke-dasharray:none;stroke-opacity:1"
       d="M 72.427268,78.573591 H 59.769814 V 51.206083 h 12.657454"
       id="path65-3"
       sodipodi:nodetypes="cccc" /><path
       style="display:inline;fill:#f01616;fill-opacity:1;stroke:#000000;stroke-width:6.11602;stroke-linecap:round;stroke-miterlimit:5;stroke-dasharray:none;stroke-opacity:1"
       d="M 72.427268,43.405684 V 90.47251 h 7.715696 v 6.87493 H 110.0342 v -6.610508 h 15.55265 V 42.61242 H 112.48098 V 34.944227 H 85.713041 v 8.461457 z"
       id="path60-9"
       sodipodi:nodetypes="ccccccccccccc" /><path
       style="display:inline;fill:#f01616;fill-opacity:1;stroke:#000000;stroke-width:6.11602;stroke-linecap:round;stroke-miterlimit:5;stroke-dasharray:none;stroke-opacity:1"
       d="M 98.818482,34.944227 V 61.386269 H 125.58685"
       id="path61-6"
       sodipodi:nodetypes="ccc" /><path
       style="display:inline;fill:#f01616;fill-opacity:1;stroke:#000000;stroke-width:6.11602;stroke-linecap:square;stroke-miterlimit:5;stroke-dasharray:none;stroke-opacity:1"
       d="M 98.818482,61.386269 H 72.427268"
       id="path62-5"
       sodipodi:nodetypes="cc" /><path
       style="display:inline;fill:#f01616;fill-opacity:1;stroke:#000000;stroke-width:6.11602;stroke-linecap:round;stroke-miterlimit:5;stroke-dasharray:none;stroke-opacity:1"
       d="M 85.713045,43.405684 V 61.386269"
       id="path63-6"
       sodipodi:nodetypes="cc" /><path
       style="display:inline;fill:#f01616;fill-opacity:1;stroke:#000000;stroke-width:6.11602;stroke-linecap:round;stroke-miterlimit:5;stroke-dasharray:none;stroke-opacity:1"
       d="M 112.48098,42.61242 V 61.386269"
       id="path64-3"
       sodipodi:nodetypes="cc" /><path
       style="fill:#000000;fill-opacity:1;stroke:#000000;stroke-width:6.11602;stroke-linecap:round;stroke-linejoin:bevel;stroke-miterlimit:5;stroke-dasharray:none;stroke-opacity:1"
       d="M 6.2619481,58.501331 25.990962,38.231234 47.448063,58.392266 H 33.19133 v 28.80148 H 18.646586 V 58.536274 Z"
       id="path66"
       sodipodi:nodetypes="cccccccc" /></g><g
     inkscape:groupmode="layer"
     id="layer19"
     inkscape:label="StatStrengthRegen"
     style="display:inline"><path
       style="fill:#000000;fill-opacity:1;stroke:#000000;stroke-width:5.79773;stroke-linecap:round;stroke-linejoin:bevel;stroke-miterlimit:5;stroke-dasharray:none;stroke-opacity:1"
       d="M 7.7745011,61.762111 26.476745,42.546945 46.817138,61.658723 H 33.302378 V 88.961266 H 19.514596 V 61.795235 Z"
       id="path66-9"
       sodipodi:nodetypes="cccccccc" /><path
       style="display:inline;fill:#26ff0d;fill-opacity:1;stroke:#000000;stroke-width:5.58568;stroke-linecap:round;stroke-miterlimit:5;stroke-dasharray:none;stroke-opacity:1"
       d="m 79.096477,77.100755 v 22.343736 c 26.824133,-0.77161 16.610715,0 24.916033,0 V 77.100755 h 22.07156 V 54.308832 H 104.01251 V 32.741852 H 78.187031 V 54.428426 H 56.588442 v 22.672329 z"
       id="path32-6"
       sodipodi:nodetypes="ccccccccccccc" /></g></svg>
